<svg xmlns="http://www.w3.org/2000/svg" version="1.0" width="10.000000pt" height="10.000000pt"
    viewBox="0 0 1024.000000 1024.000000" preserveAspectRatio="xMidYMid meet">


    <g transform="translate(0.000000,1024.000000) scale(0.100000,-0.100000)" fill="#4543BF" stroke="none">
        <path
            d="M0 5120 l0 -5120 5120 0 5120 0 0 5120 0 5120 -5120 0 -5120 0 0 -5120z m8065 -20 l0 -2855 -2970 0 -2970 0 -3 2845 c-1 1565 0 2851 3 2858 3 10 603 12 2972 10 l2968 -3 0 -2855z" />
        <path
            d="M2530 5100 l0 -2450 2570 0 2570 0 0 2450 0 2450 -2570 0 -2570 0 0 -2450z m4644 1478 c4 -260 5 -1130 3 -1933 l-3 -1460 -2079 0 -2080 0 -3 1933 -2 1932 2079 0 2079 0 6 -472z" />
        <path
            d="M3515 6548 c-3 -7 -4 -650 -3 -1428 l3 -1415 1580 0 1580 0 3 1428 2 1427 -1580 0 c-1255 0 -1582 -3 -1585 -12z m2425 -1398 l0 -820 -415 0 -415 0 0 820 0 820 415 0 415 0 0 -820z "
            rx="50" ry="50" />
    </g>
</svg>